<?xml version="1.0" encoding="utf-8"?>
<!-- Generator: Adobe Illustrator 22.1.0, SVG Export Plug-In . SVG Version: 6.00 Build 0)  -->
<svg version="1.1" id="Layer_1" xmlns="http://www.w3.org/2000/svg" xmlns:xlink="http://www.w3.org/1999/xlink" x="0px" y="0px"
	 viewBox="0 0 512 512" style="enable-background:new 0 0 512 512;" xml:space="preserve">
<style type="text/css">
	.st0{fill:#FCE575;}
	.st1{fill:#FFD551;}
	.st2{fill:#FFA730;}
	.st3{fill:#E58D23;}
	.st4{fill:#FF624B;}
	.st5{fill:#FFF4C1;}
	.st6{fill:#FCDA4F;}
	.st7{fill:#FF4B34;}
	.st8{fill:#CCC033;}
	.st9{fill:#99AF17;}
	.st10{fill:#FF9079;}
	.st11{fill:#EACF32;}
	.st12{fill:#F9BB32;}
	.st13{fill:#FFEA63;}
	.st14{fill:#FFEACF;}
	.st15{fill:#FFD59A;}
	.st16{fill:#FFC34C;}
	.st17{fill:#A56021;}
	.st18{fill:#FFDF74;}
	.st19{fill:#BF6C0D;}
	.st20{fill:#FFB74B;}
	.st21{fill:#8C4C17;}
	.st22{fill:#FCF9DE;}
	.st23{fill:#DB9C2E;}
	.st24{fill:#FFF9DC;}
	.st25{fill:none;}
</style>
<g>
	<g>
		<path class="st3" d="M287.514,349.956v-47.877c0-3.188-3.494-5.142-6.211-3.474l-83.588,51.351h-21.701v-47.877
			c0-3.188-3.494-5.142-6.211-3.474l-83.588,51.351h-35.4c-3.377,0-6.115,2.738-6.115,6.115v10.557h268.137v-16.672H287.514z"/>
	</g>
	<g>
		<g>
			<path class="st20" d="M402.088,438.43l62.749,0.001l-5.582-258.135c-0.072-3.325-2.788-5.983-6.114-5.983h-39.359
				c-3.326,0-6.042,2.658-6.114,5.983L402.088,438.43z"/>
		</g>
	</g>
	<g>
		<path class="st2" d="M434.702,438.43l5.582-258.134c0.072-3.325,2.788-5.983,6.114-5.983h-32.614
			c-3.326,0-6.042,2.658-6.114,5.983l-5.582,258.134l62.749,0.001v-0.001L434.702,438.43z"/>
	</g>
	<g>
		<path class="st19" d="M433.461,120.726c-2.615,0-5.146,0.354-7.555,1.007c-2.903-18.094-18.581-31.919-37.493-31.919
			c-5.181,0-10.118,1.041-14.618,2.919c-6.191-12.572-19.126-21.225-34.087-21.225c-13.915,0-26.076,7.487-32.69,18.649
			c-5.95-3.869-13.045-6.125-20.671-6.125c-4.333,0-8.492,0.736-12.371,2.072c0.037-0.686,0.058-1.376,0.058-2.072
			c0-20.976-17.004-37.98-37.98-37.98c-20.976,0-37.98,17.004-37.98,37.98c0,20.976,17.004,37.98,37.98,37.98
			c4.333,0,8.492-0.736,12.371-2.072c-0.037,0.686-0.058,1.376-0.058,2.072c0,20.976,17.004,37.98,37.98,37.98
			c13.915,0,26.076-7.487,32.69-18.649c5.95,3.869,13.045,6.125,20.671,6.125c5.181,0,10.118-1.041,14.618-2.919
			c6.191,12.572,19.126,21.225,34.087,21.225c6.742,0,13.068-1.764,18.557-4.844c4.413,10.262,14.612,17.451,26.492,17.451
			c15.921,0,28.827-12.906,28.827-28.828C462.288,133.632,449.381,120.726,433.461,120.726z"/>
	</g>
	<g>
		<path class="st17" d="M437.544,140.546c-5.488,3.08-11.815,4.844-18.557,4.844c-14.961,0-27.896-8.654-34.087-21.225
			c-4.5,1.878-9.437,2.919-14.618,2.919c-7.626,0-14.721-2.256-20.671-6.125c-6.615,11.162-18.775,18.649-32.69,18.649
			c-20.976,0-37.98-17.004-37.98-37.98c0-0.695,0.021-1.385,0.058-2.072c-3.879,1.336-8.038,2.072-12.371,2.072
			c-20.976,0-37.98-17.005-37.98-37.98c0-6.296,1.541-12.229,4.252-17.456c-19.499,1.604-34.828,17.926-34.828,37.84
			c0,20.976,17.004,37.98,37.98,37.98c4.333,0,8.492-0.736,12.371-2.072c-0.037,0.686-0.058,1.376-0.058,2.072
			c0,20.976,17.004,37.98,37.98,37.98c13.915,0,26.076-7.487,32.69-18.649c5.95,3.869,13.045,6.125,20.671,6.125
			c5.181,0,10.118-1.041,14.618-2.919c6.191,12.572,19.126,21.225,34.087,21.225c6.742,0,13.068-1.764,18.557-4.844
			c4.413,10.262,14.612,17.451,26.492,17.451c13.044,0,24.059-8.666,27.616-20.553C450.484,156.746,441.586,149.944,437.544,140.546
			z"/>
	</g>
	<g>
		<path class="st12" d="M478.35,465.949H37.913c-4.418,0-8-3.582-8-8V357.302c0-4.418,3.582-8,8-8H478.35V465.949z"/>
	</g>
	<g>
		<g>
			<path class="st20" d="M324.583,465.948l62.749,0.001l-5.582-243.377c-0.072-3.135-2.788-5.641-6.114-5.641h-39.359
				c-3.326,0-6.042,2.506-6.114,5.641L324.583,465.948z"/>
		</g>
	</g>
	<g>
		<path class="st2" d="M355.159,465.948l5.582-243.375c0.072-3.135,2.788-5.641,6.114-5.641h-30.575
			c-3.326,0-6.042,2.506-6.114,5.641l-5.582,243.375l62.749,0.001v0L355.159,465.948z"/>
	</g>
	<g>
		<path class="st23" d="M76.795,369.686c0-4.503,3.65-8.153,8.153-8.153H478.35v-12.23H38.066c-4.503,0-8.153,3.65-8.153,8.153
			v100.34c0,4.503,3.65,8.153,8.153,8.153h38.729V369.686z"/>
	</g>
	<g>
		<path class="st3" d="M354.984,162.512c-2.615,0-5.146,0.354-7.555,1.007c-2.903-18.094-18.581-31.919-37.493-31.919
			c-5.181,0-10.118,1.041-14.618,2.919c-6.191-12.572-19.126-21.225-34.087-21.225c-13.915,0-26.076,7.487-32.69,18.649
			c-5.95-3.869-13.045-6.125-20.671-6.125c-4.333,0-8.492,0.736-12.371,2.072c0.037-0.686,0.058-1.376,0.058-2.072
			c0-20.976-17.004-37.98-37.98-37.98c-20.976,0-37.98,17.004-37.98,37.98c0,20.976,17.004,37.98,37.98,37.98
			c4.333,0,8.492-0.736,12.371-2.072c-0.037,0.686-0.058,1.376-0.058,2.072c0,20.976,17.004,37.98,37.98,37.98
			c13.915,0,26.076-7.487,32.69-18.649c5.95,3.869,13.045,6.125,20.671,6.125c5.181,0,10.118-1.041,14.618-2.919
			c6.191,12.572,19.126,21.225,34.087,21.225c6.742,0,13.068-1.764,18.557-4.844c4.413,10.262,14.612,17.451,26.492,17.451
			c15.921,0,28.827-12.906,28.827-28.828C383.811,175.419,370.905,162.512,354.984,162.512z"/>
	</g>
	<g>
		<path class="st3" d="M293.456,401.23H52.777c-2.209,0-4-1.791-4-4v-19.178c0-2.209,1.791-4,4-4h240.679c2.209,0,4,1.791,4,4
			v19.178C297.456,399.439,295.665,401.23,293.456,401.23z"/>
	</g>
	<g>
		<path class="st18" d="M482.087,465.949H310.315V312.266c0-4.418,3.582-8,8-8h155.773c4.418,0,8,3.582,8,8V465.949z"/>
	</g>
	<g>
		<path class="st3" d="M449.159,433.504h-29.887c-2.761,0-5-2.239-5-5V338.89c0-2.761,2.239-5,5-5h29.887c2.761,0,5,2.239,5,5
			v89.614C454.159,431.266,451.92,433.504,449.159,433.504z"/>
	</g>
	<g>
		<path class="st19" d="M76.795,374.052H52.853c-2.251,0-4.077,1.825-4.077,4.077v19.025c0,2.251,1.825,4.077,4.077,4.077h23.941
			V374.052z"/>
	</g>
	<g>
		<path class="st1" d="M362.407,332.803c0-4.503,3.732-8.153,8.335-8.153h111.345v-12.23c0-4.503-3.732-8.153-8.335-8.153H318.65
			c-4.603,0-8.335,3.65-8.335,8.153v153.529h52.092V332.803z"/>
	</g>
	<g>
		<path class="st19" d="M370.271,199.783c-11.88,0-22.078-7.188-26.492-17.451c-5.488,3.08-11.815,4.844-18.557,4.844
			c-14.961,0-27.896-8.654-34.087-21.225c-4.5,1.878-9.437,2.919-14.618,2.919c-7.626,0-14.721-2.256-20.671-6.125
			c-6.615,11.162-18.775,18.649-32.69,18.649c-20.976,0-37.98-17.004-37.98-37.98c0-0.695,0.021-1.385,0.058-2.072
			c-3.879,1.336-8.038,2.072-12.371,2.072c-20.976,0-37.98-17.005-37.98-37.98c0-3.922,0.595-7.706,1.699-11.266
			c-10.237,6.804-16.987,18.436-16.987,31.649c0,20.976,17.004,37.98,37.98,37.98c4.333,0,8.492-0.736,12.371-2.072
			c-0.037,0.686-0.058,1.376-0.058,2.072c0,20.976,17.004,37.98,37.98,37.98c13.915,0,26.076-7.487,32.69-18.649
			c5.95,3.869,13.045,6.125,20.671,6.125c5.181,0,10.118-1.041,14.618-2.919c6.191,12.572,19.126,21.225,34.087,21.225
			c6.742,0,13.068-1.764,18.557-4.844c4.413,10.262,14.612,17.451,26.492,17.451c14.101,0,25.83-10.128,28.329-23.504
			C379.395,198.654,374.967,199.783,370.271,199.783z"/>
	</g>
	<g>
		<circle class="st23" cx="102.271" cy="433.033" r="15.63"/>
	</g>
	<g>
		<path class="st5" d="M467.819,362.458c-3.313,0-6-2.687-6-6v-15.866c0-3.314,2.687-6,6-6s6,2.686,6,6v15.866
			C473.819,359.771,471.132,362.458,467.819,362.458z"/>
	</g>
	<g>
		<path class="st5" d="M467.819,448.508c-3.313,0-6-2.687-6-6v-64.379c0-3.313,2.687-6,6-6s6,2.687,6,6v64.379
			C473.819,445.821,471.132,448.508,467.819,448.508z"/>
	</g>
	<g>
		<path class="st3" d="M370.414,433.504h-29.887c-2.761,0-5-2.239-5-5V338.89c0-2.761,2.239-5,5-5h29.887c2.761,0,5,2.239,5,5
			v89.614C375.414,431.266,373.175,433.504,370.414,433.504z"/>
	</g>
	<g>
		<path class="st19" d="M361.274,333.89h-20.651c-2.814,0-5.096,2.282-5.096,5.096v89.422c0,2.814,2.281,5.096,5.096,5.096h20.651
			V333.89z"/>
	</g>
	<g>
		<path class="st16" d="M450.153,220.214c-3.313,0-6-2.686-6-6v-23.659c0-3.314,2.687-6,6-6s6,2.686,6,6v23.659
			C456.153,217.527,453.467,220.214,450.153,220.214z"/>
	</g>
	<g>
		<path class="st16" d="M370.657,259.153c-3.313,0-6-2.686-6-6v-23.659c0-3.314,2.687-6,6-6s6,2.686,6,6v23.659
			C376.657,256.467,373.971,259.153,370.657,259.153z"/>
	</g>
	<g>
		<circle class="st19" cx="163.139" cy="114.557" r="15.63"/>
	</g>
</g>
</svg>
