<?xml version="1.0" encoding="iso-8859-1"?>
<!-- Generator: Adobe Illustrator 19.0.0, SVG Export Plug-In . SVG Version: 6.00 Build 0)  -->
<svg version="1.1" id="Layer_1" xmlns="http://www.w3.org/2000/svg" xmlns:xlink="http://www.w3.org/1999/xlink" x="0px" y="0px"
	 viewBox="0 0 511.999 511.999" style="enable-background:new 0 0 511.999 511.999;" xml:space="preserve">
<path style="fill:#6DD0E3;" d="M343.768,291.284c0,91.425-175.537,92.193-175.537,0c0.021-90.582,80.359-187.354,87.514-194.899
	c0.106-0.076,0.19-0.179,0.254-0.256c0.064,0.076,0.148,0.179,0.254,0.256C263.409,103.93,343.747,200.702,343.768,291.284z"/>
<path style="fill:#34A4BA;" d="M189.13,291.284c0.018-74.166,53.871-152.469,77.319-182.561c-5.19-6.66-8.898-10.97-10.195-12.338
	c-0.106-0.076-0.19-0.179-0.254-0.256c-0.064,0.076-0.148,0.179-0.254,0.256c-7.155,7.544-87.493,104.316-87.514,194.899
	c0,49.672,50.956,72.358,97.959,68.42C226.151,356.353,189.13,333.623,189.13,291.284z"/>
<ellipse style="fill:#6DD0E3;" cx="256" cy="401.24" rx="248.163" ry="14.625"/>
<circle style="fill:#A1EFFF;" cx="256" cy="291.536" r="31.089"/>
<path d="M227.908,132.906c3.542,2.489,8.429,1.634,10.917-1.906c7.091-10.09,13.128-17.863,17.216-22.885
	c15.949,19.477,55.408,73.861,72.093,132.103c0.985,3.44,4.121,5.681,7.53,5.681c0.715,0,1.441-0.098,2.162-0.305
	c4.161-1.192,6.567-5.532,5.376-9.692c-22.501-78.549-80.69-144.317-81.26-144.917c-0.085-0.089-0.171-0.176-0.259-0.261
	c-1.473-1.549-3.529-2.429-5.683-2.43c-0.001,0-0.003,0-0.005,0c-2.14,0-4.185,0.883-5.658,2.416
	c-0.094,0.089-0.185,0.181-0.275,0.275c-2.862,3.018-12.508,14.566-24.059,31.004C223.513,125.53,224.367,130.417,227.908,132.906z"
	/>
<path d="M191.066,349.384c17.151,11.989,40.114,18.593,64.658,18.593c24.617,0,47.696-6.625,64.987-18.655
	c20.21-14.059,30.892-34.129,30.892-58.041c0-4.328-3.509-7.837-7.837-7.837s-7.837,3.509-7.837,7.837
	c0,23.44-13.144,37.503-24.17,45.174c-14.476,10.071-34.902,15.847-56.037,15.847c-38.364,0-79.657-19.096-79.657-61.02
	c0.008-34.875,13.005-76.495,37.584-120.364c2.116-3.775,0.77-8.551-3.006-10.667s-8.551-0.769-10.667,3.006
	c-26.256,46.863-39.574,89.934-39.584,128.023C160.395,315.264,171.001,335.357,191.066,349.384z"/>
<path d="M296.91,196.451c-4.235-8.903-9.035-18.031-14.269-27.131c-2.157-3.752-6.948-5.045-10.7-2.887
	c-3.752,2.158-5.045,6.949-2.887,10.7c5.031,8.749,9.641,17.515,13.702,26.05c1.343,2.822,4.152,4.472,7.082,4.472
	c1.128,0,2.274-0.244,3.36-0.762C297.108,205.035,298.77,200.359,296.91,196.451z"/>
<path d="M310.507,310.443c0.694,0.19,1.391,0.281,2.077,0.281c3.442,0,6.599-2.286,7.554-5.767c1.18-4.303,1.778-8.904,1.778-13.679
	c-0.005-21.37-4.977-45.252-14.776-70.983c-1.54-4.044-6.065-6.075-10.113-4.534c-4.045,1.54-6.074,6.068-4.534,10.113
	c9.119,23.944,13.744,45.95,13.749,65.406c0,3.373-0.411,6.58-1.219,9.532C303.876,304.987,306.333,309.299,310.507,310.443z"/>
<path d="M485.743,387.788c-12.704-1.77-30.807-3.355-53.804-4.71c-47.02-2.771-109.503-4.297-175.939-4.297
	s-128.918,1.526-175.939,4.297c-22.997,1.355-41.1,2.94-53.804,4.71C10.883,389.93,0,392.149,0,401.243
	c0,8.342,9.863,10.444,15.161,11.572c6.044,1.287,14.833,2.513,26.125,3.641c21.906,2.19,53.159,4.018,90.379,5.287
	c4.323,0.146,7.952-3.239,8.099-7.565c0.147-4.326-3.24-7.952-7.565-8.099c-39.341-1.341-66.9-3.104-85.571-4.848
	c38.546-3.577,109.056-6.777,209.371-6.777c100.425,0,170.98,3.207,209.499,6.789c-38.519,3.582-109.074,6.789-209.499,6.789
	c-26.073,0-51.748-0.237-76.309-0.705c-4.304-0.084-7.903,3.358-7.985,7.686c-0.083,4.328,3.358,7.903,7.685,7.985
	c24.661,0.47,50.435,0.708,76.608,0.708c66.436,0,128.918-1.526,175.939-4.297c22.997-1.355,41.1-2.94,53.804-4.71
	c15.375-2.142,26.257-4.361,26.257-13.455S501.117,389.93,485.743,387.788z"/>
<g>
</g>
<g>
</g>
<g>
</g>
<g>
</g>
<g>
</g>
<g>
</g>
<g>
</g>
<g>
</g>
<g>
</g>
<g>
</g>
<g>
</g>
<g>
</g>
<g>
</g>
<g>
</g>
<g>
</g>
</svg>
